<svg width="19" height="19" viewBox="0 0 19 19" fill="none" xmlns="http://www.w3.org/2000/svg">
<path d="M9.16666 17.5C13.769 17.5 17.5 13.7691 17.5 9.16668C17.5 4.5643 13.769 0.833344 9.16666 0.833344C4.56429 0.833344 0.833328 4.5643 0.833328 9.16668C0.833328 13.7691 4.56429 17.5 9.16666 17.5Z" stroke="#344054" stroke-width="1.66667" stroke-linecap="round" stroke-linejoin="round"/>
<path d="M7.08333 6.63779C7.08333 6.24005 7.08333 6.04118 7.16645 5.93016C7.23888 5.83341 7.34976 5.77287 7.47031 5.76426C7.60865 5.75438 7.77593 5.86192 8.1105 6.077L12.0443 8.60589C12.3347 8.79253 12.4798 8.88584 12.5299 9.0045C12.5738 9.10818 12.5738 9.22517 12.5299 9.32885C12.4798 9.44751 12.3347 9.54083 12.0443 9.72746L8.1105 12.2564C7.77593 12.4714 7.60865 12.579 7.47031 12.5691C7.34976 12.5605 7.23888 12.4999 7.16645 12.4032C7.08333 12.2922 7.08333 12.0933 7.08333 11.6956V6.63779Z" stroke="#344054" stroke-width="1.66667" stroke-linecap="round" stroke-linejoin="round"/>
</svg>
